<?xml version="1.0" encoding="UTF-8"?>
<svg id="Layer_3" data-name="Layer 3" xmlns="http://www.w3.org/2000/svg" width="140" height="140" viewBox="0 0 140 140">
  <g>
    <rect x="3" y="3" width="134" height="134" rx="17.7734" ry="17.7734" fill="#1f2937"/>
    <path d="M119.2269,6c8.1459,0,14.7731,6.6272,14.7731,14.7731v98.4539c0,8.1459-6.6272,14.7731-14.7731,14.7731H20.7731c-8.1459,0-14.7731-6.6272-14.7731-14.7731V20.7731c0-8.1459,6.6272-14.7731,14.7731-14.7731h98.4538M119.2269,0H20.7731C9.3004,0,0,9.3004,0,20.7731v98.4539c0,11.4727,9.3004,20.7731,20.7731,20.7731h98.4538c11.4727,0,20.7731-9.3004,20.7731-20.7731V20.7731c0-11.4727-9.3004-20.7731-20.7731-20.7731h0Z" fill="#0d3a68"/>
  </g>
  <circle cx="119.0956" cy="20.251" r="7.7778" fill="#30ff2a"/>
  <g>
    <path d="M66.0908,39.1704c0,.9873-.1531,1.9364-.4401,2.8281-.5473,1.7221-1.5843,3.2261-2.9467,4.3474-1.6073,1.3241-3.6662,2.1201-5.9049,2.1201-1.7259,0-3.3485-.4707-4.7339-1.2973-2.7324-1.6188-4.5617-4.5961-4.5617-7.9983,0-5.1319,4.1637-9.2918,9.2956-9.2918s9.2918,4.1599,9.2918,9.2918Z" fill="none" stroke="#fff" stroke-linecap="round" stroke-linejoin="round" stroke-width="3"/>
    <path d="M107.2148,52.8707c0,3.9762-3.0769,7.2329-6.9803,7.5123-.1837.0153-.3674.0229-.5511.0229-3.3103,0-6.1269-2.1392-7.1334-5.1128-.2603-.7616-.4018-1.5767-.4018-2.4225,0-.7998.1262-1.569.3597-2.2923.9682-3.0385,3.8154-5.239,7.1755-5.239,4.1599,0,7.5313,3.3715,7.5313,7.5313Z" fill="none" stroke="#fff" stroke-linecap="round" stroke-linejoin="round" stroke-width="3"/>
    <path d="M59.6807,103.8873c0,3.4404-2.7898,6.2341-6.2341,6.2341-3.4404,0-6.2302-2.7937-6.2302-6.2341,0-2.2732,1.2131-4.2594,3.0271-5.3462.9337-.5664,2.0321-.8879,3.2031-.8879,3.0692,0,5.6179,2.2158,6.1346,5.1357.065.3559.0995.7233.0995,1.0983Z" fill="none" stroke="#fff" stroke-linecap="round" stroke-linejoin="round" stroke-width="3"/>
    <path d="M43.8297,74.5387c0,.8113-.1225,1.5958-.3483,2.3306h-.0038c-.574,1.8981-1.8445,3.494-3.5169,4.4966-1.194.7156-2.5908,1.1289-4.0871,1.1289-4.3933,0-7.9523-3.5628-7.9523-7.9561s3.559-7.9562,7.9523-7.9562c1.481,0,2.8664.4057,4.0527,1.1098,1.6226.9606,2.8702,2.4799,3.4787,4.29.2755.7998.4248,1.6609.4248,2.5564Z" fill="none" stroke="#fff" stroke-linecap="round" stroke-linejoin="round" stroke-width="3"/>
    <path d="M74.9769,61.2593l-31.572,10.723c-.6085-1.8101-1.856-3.3294-3.4787-4.29l12.139-20.5237c1.3853.8266,3.0079,1.2973,4.7339,1.2973,2.2388,0,4.2976-.796,5.9049-2.1201l12.2729,14.9135Z" fill="none" stroke="#fff" stroke-linecap="round" stroke-linejoin="round" stroke-width="3"/>
    <path d="M93.4953,95.0548c0,.5588.0498,1.106.1454,1.6379l-34.0595,6.0963c-.5166-2.9199-3.0654-5.1357-6.1346-5.1357-1.171,0-2.2693.3215-3.2031.8879l-10.283-17.1752c1.6724-1.0026,2.9429-2.5985,3.5169-4.4966h.0038l50.4196,15.4607c-.264.8611-.4056,1.7756-.4056,2.7247Z" fill="none" stroke="#fff" stroke-linecap="round" stroke-linejoin="round" stroke-width="3"/>
    <path d="M112.0788,95.0548c0,5.132-4.1598,9.2918-9.2917,9.2918-4.5732,0-8.3733-3.3026-9.1463-7.6538-.0957-.5319-.1454-1.0792-.1454-1.6379,0-.9491.1416-1.8637.4056-2.7247.5397-1.7642,1.5921-3.3065,2.9812-4.4507,1.4389-1.1901,3.2452-1.9517,5.2237-2.0933.2258-.0191.4516-.0268.6812-.0268,5.1319,0,9.2917,4.1637,9.2917,9.2955Z" fill="none" stroke="#fff" stroke-linecap="round" stroke-linejoin="round" stroke-width="3"/>
    <path d="M102.1059,85.786c-1.9785.1416-3.7848.9032-5.2237,2.0933l-21.9052-26.62,17.5732-5.9661c1.0065,2.9735,3.8231,5.1128,7.1334,5.1128.1837,0,.3674-.0077.5511-.0229l1.8714,25.403Z" fill="none" stroke="#fff" stroke-linecap="round" stroke-linejoin="round" stroke-width="3"/>
    <line x1="92.508" y1="50.5784" x2="65.6507" y2="41.9985" fill="none" stroke="#fff" stroke-linecap="round" stroke-linejoin="round" stroke-width="3"/>
  </g>
</svg>